


<svg version="1.1" id="svg2" xml:space="preserve" width="339.58185" height="184.2563" viewBox="0 0 339.58185 184.2563" xmlns="http://www.w3.org/2000/svg"><defs id="defs6"><clipPath clipPathUnits="userSpaceOnUse" id="clipPath16"><path d="M 0,841.89 H 595.28 V 0 H 0 Z" id="path14"></path></clipPath></defs><g id="g8" transform="matrix(1.3333333,0,0,-1.3333333,-229.82209,649.33375)"><g id="g10"><g id="g12" clip-path="url(#clipPath16)"><g id="g18" transform="translate(299.9258,486.998)"><path d="m 0,0 c -70.334,0.273 -127.46,-23.525 -127.559,-53.173 -0.132,-29.648 56.794,-53.919 127.127,-54.192 70.301,-0.315 127.442,23.491 127.559,53.173 C 127.242,-24.569 70.316,-0.299 0,0" style="fill:#c4122e;fill-opacity:1;fill-rule:nonzero;stroke:none" id="path20"></path></g><g id="g22" transform="translate(274.6606,402.2041)"><path d="m 0,0 -1.202,0.497 -0.895,-0.778 0.498,-0.845 0.82,-0.563 C -0.1,-2.171 0.438,-2.668 0.438,-3.753 L -0.1,-5.36 l -2.079,-0.754 -1.616,0.331 -0.075,0.115 0.05,0.714 0.025,0.604 0.058,0.033 1.367,-0.538 c 0.811,0 1.028,0.563 1.028,0.944 l -0.813,1.077 -0.455,0.315 c -0.556,0.398 -1.26,0.912 -1.26,2.081 0,0.77 0.307,1.317 0.638,1.615 L -1.45,1.774 0.157,1.426 0.19,1.326 0.124,0.663 0.083,0.034 Z" style="fill:#ffffff;fill-opacity:1;fill-rule:nonzero;stroke:none" id="path24"></path></g><g id="g26" transform="translate(278.8447,396.1885)"><path d="m 0,0 c -0.762,0 -0.969,0 -1.781,-0.017 l -0.058,0.05 c 0.033,1.443 0.041,2.818 0.058,4.226 0,1.045 0,1.633 -0.042,3.299 l 0.05,0.065 c 0.746,-0.024 0.969,-0.017 1.79,0.009 L 0.066,7.574 C 0.042,6.612 0.025,5.668 0.017,4.707 c 0,-1.541 0,-3.082 0.049,-4.641 z" style="fill:#ffffff;fill-opacity:1;fill-rule:nonzero;stroke:none" id="path28"></path></g><g id="g30" transform="translate(282.4165,401.0947)"><path d="m 0,0 0.066,-2.006 c 0.042,-1.433 0.042,-1.823 0.075,-2.849 l -0.075,-0.068 -1.384,-0.015 -0.066,0.056 0.033,1.931 c 0,1.028 0,3.001 -0.017,3.713 0,0.281 -0.016,1.052 -0.049,1.873 L -1.351,2.7 c 0.779,-0.016 0.92,-0.016 1.69,0.017 L 0.406,2.651 C 0.721,2.055 0.845,1.814 1.715,0.216 L 2.925,-2.006 2.867,0.198 V 1.375 L 2.826,2.626 2.867,2.668 4.242,2.7 4.309,2.635 c 0,-1.592 -0.025,-3.05 -0.025,-3.514 0,-0.819 0,-2.718 0.025,-4.003 L 4.242,-4.938 2.701,-4.955 2.585,-4.897 C 2.37,-4.409 2.303,-4.293 1.508,-2.851 Z" style="fill:#ffffff;fill-opacity:1;fill-rule:nonzero;stroke:none" id="path32"></path></g><g id="g34" transform="translate(293.6191,397.8135)"><path d="m 0,0 -0.049,-1.451 -0.059,-0.091 -1.565,-0.265 c -0.598,0 -1.674,0.067 -2.478,0.928 -0.456,0.514 -0.895,1.442 -0.895,2.884 l 0.265,1.798 c 0.72,2.269 2.652,2.269 3.19,2.269 L -0.033,5.767 0.017,5.684 -0.042,4.93 -0.066,4.259 -0.149,4.209 -1.342,4.689 c -1.384,0 -1.807,-1.358 -1.831,-2.609 0,-0.729 0.165,-2.486 1.831,-2.486 l 1.293,0.447 z" style="fill:#ffffff;fill-opacity:1;fill-rule:nonzero;stroke:none" id="path36"></path></g><g id="g38" transform="translate(297.124,399.4209)"><path d="m 0,0 -0.016,-1.956 0.464,-0.017 c 1.159,0.042 1.442,0.042 1.906,0.067 L 2.412,-1.973 2.329,-3.249 2.304,-3.315 0.547,-3.307 c -1.35,0 -1.641,0 -2.329,-0.024 l -0.04,0.066 c 0.015,0.845 0.032,1.442 0.032,2.842 0.008,1.532 0.008,3.529 -0.041,4.665 L -1.79,4.325 C -0.431,4.291 1.003,4.291 2.246,4.309 L 2.329,4.275 2.246,3.082 2.18,3.023 H 1.972 L 1.003,3.032 H 0.381 -0.025 c 0,-0.762 -0.017,-0.969 0,-1.781 H 0.448 L 2.08,1.268 2.155,1.209 2.08,0.049 2.021,-0.017 0.448,0 Z" style="fill:#ffffff;fill-opacity:1;fill-rule:nonzero;stroke:none" id="path40"></path></g><g id="g42" transform="translate(308.1621,396.0557)"><path d="m 0,0 c -0.904,0.034 -1.152,0.018 -1.891,-0.017 l -0.065,0.076 c 0.034,1.449 0.042,2.502 0.042,3.985 v 2.378 l -0.772,-0.074 -0.066,0.074 0.034,1.219 0.05,0.066 C -1.625,7.848 -1.467,7.864 0,8.087 L 0.074,8.021 0.023,4.392 C 0.023,2.967 0.041,1.525 0.1,0.084 Z" style="fill:#ffffff;fill-opacity:1;fill-rule:nonzero;stroke:none" id="path44"></path></g><g id="g46" transform="translate(313.8125,400.7383)"><path d="m 0,0 -0.845,-0.456 c -0.796,0 -0.778,1.077 -0.778,1.259 0,0.879 0.372,1.243 0.795,1.243 C 0.059,2.046 0.018,0.555 0,0 m -2.883,-3.042 -0.092,-1.425 0.092,-0.091 c 0.24,-0.09 0.662,-0.273 1.466,-0.273 0.929,0 2.114,0.215 2.81,1.674 0.438,0.961 0.521,2.112 0.521,2.8 0,0.854 -0.107,2.105 -0.713,2.859 l -1.017,0.754 -0.93,0.133 c -1.723,0 -2.685,-1.169 -2.685,-2.868 0,-1.515 0.822,-2.543 2.097,-2.543 l 1.293,0.456 c -0.018,-0.414 -0.107,-1.84 -1.542,-1.84 l -1.168,0.43 z" style="fill:#ffffff;fill-opacity:1;fill-rule:nonzero;stroke:none" id="path48"></path></g><g id="g50" transform="translate(320.6895,400.7129)"><path d="m 0,0 -0.861,-0.464 c -0.795,0 -0.795,1.077 -0.779,1.26 0,0.894 0.39,1.243 0.796,1.243 C 0.025,2.039 0.018,0.547 0,0 m -2.899,-3.041 -0.099,-1.408 0.082,-0.108 c 0.24,-0.083 0.696,-0.282 1.5,-0.282 0.887,0 2.104,0.232 2.792,1.682 0.456,0.953 0.497,2.13 0.497,2.793 C 1.891,0.497 1.782,1.757 1.178,2.52 l -1.02,0.728 -0.92,0.133 c -1.731,0 -2.683,-1.168 -2.709,-2.859 0,-1.507 0.828,-2.528 2.114,-2.543 l 1.308,0.446 c -0.041,-0.404 -0.14,-1.831 -1.532,-1.831 l -1.194,0.44 z" style="fill:#ffffff;fill-opacity:1;fill-rule:nonzero;stroke:none" id="path52"></path></g><g id="g54" transform="translate(326.8799,402.4033)"><path d="m 0,0 h -0.713 c -0.886,0 -1.218,0 -2.31,-0.05 l -0.068,0.1 0.117,1.425 0.058,0.083 1.242,-0.025 h 1.698 c 1.177,0 1.351,0 2.106,0.017 L 2.188,1.458 2.097,1.144 C 1.791,0.282 1.732,0.033 1.426,-0.978 L 0.704,-3.29 C 0.19,-5.021 0.051,-5.461 -0.157,-6.33 L -0.24,-6.413 c -0.862,0.017 -1.077,0.017 -1.989,-0.018 l -0.057,0.067 c 0.239,0.604 0.289,0.779 0.762,2.104 l 0.613,1.758 z" style="fill:#ffffff;fill-opacity:1;fill-rule:nonzero;stroke:none" id="path56"></path></g><g id="g58" transform="translate(301.25,456.9268)"><path d="M 0,0 C 0.764,-3.025 0.971,-6.712 0.945,-13.623 L 0.879,-29.996 c -0.033,-6.951 -0.265,-10.59 -1.068,-13.623 l 12.304,-0.066 c -0.771,3.057 -0.969,6.704 -0.927,13.639 v 0.862 h 0.414 l 2.436,-0.017 c 12.33,-0.041 18.313,6.132 18.346,14.501 0.024,8.684 -6.265,14.601 -18.23,14.634 z m 15.123,-22.355 c -0.373,0 -2.428,0 -3.894,0.048 l 0.025,8.643 c 0.016,2.452 0.041,4.466 0.124,6.206 1.491,0.034 3.446,0.018 3.796,0.018 4.084,-0.018 6.918,-3.232 6.902,-7.509 0,-4.208 -2.868,-7.424 -6.953,-7.406" style="fill:#ffffff;fill-opacity:1;fill-rule:nonzero;stroke:none" id="path60"></path></g><g id="g62" transform="translate(358.6572,439.0791)"><path d="m 0,0 c -6.96,3.513 -9.512,4.291 -9.504,7.457 0,1.914 1.508,3.895 4.699,3.878 3.19,-0.018 6.422,-1.823 8.916,-4.044 l 0.041,9.33 c -2.601,0.854 -5.286,1.409 -8.012,1.409 -8.113,0.033 -15.198,-5.203 -15.231,-13.514 -0.009,-5.992 3.43,-9.315 9.181,-12.205 5.188,-2.587 7.565,-3.63 7.55,-6.978 -0.017,-2.802 -2.396,-4.657 -5.768,-4.641 -5.138,0.017 -10.084,4.524 -11.386,5.867 l -0.041,-10.308 c 2.9,-1.393 7.409,-2.594 11.385,-2.61 9.819,-0.058 15.711,6.496 15.744,14.409 C 7.582,-7.525 6.083,-3.083 0,0" style="fill:#ffffff;fill-opacity:1;fill-rule:nonzero;stroke:none" id="path64"></path></g><g id="g66" transform="translate(292.0449,456.96)"><path d="m 0,0 -12.322,0.059 c 0.779,-3.025 0.987,-6.705 0.937,-13.632 l -0.058,-16.373 c -0.025,-6.927 -0.241,-10.598 -1.069,-13.606 l 12.322,-0.051 c -0.779,3.025 -0.954,6.671 -0.929,13.607 l 0.058,16.382 C -1.019,-6.679 -0.812,-3.017 0,0" style="fill:#ffffff;fill-opacity:1;fill-rule:nonzero;stroke:none" id="path68"></path></g><g id="g70" transform="translate(259.0903,413.4736)"><path d="m 0,0 c 0.191,3.033 1.144,6.695 3.323,13.606 l 5.154,16.366 c 2.188,6.919 3.546,10.59 5.303,13.613 L 4.549,43.603 C 4.375,40.594 3.422,36.907 1.243,30.004 L -3.944,13.64 -4.226,12.794 -4.466,13.64 -9.521,30.046 c -2.121,6.928 -3.041,10.606 -3.198,13.622 l -12.405,0.066 c 1.732,-3.048 3.082,-6.711 5.187,-13.647 l 5.039,-16.405 c 2.121,-6.937 3.057,-10.608 3.19,-13.64 z" style="fill:#ffffff;fill-opacity:1;fill-rule:nonzero;stroke:none" id="path72"></path></g><g id="g74" transform="translate(371.4688,418.2793)"><path d="M 0,0 H 0.24 L 1.035,-0.497 0.24,-1.011 H 0 Z M -0.746,-3.131 0,-3.148 v 1.549 h 0.24 l 0.522,-0.406 0.465,-1.143 h 0.802 l -0.588,1.442 -0.406,0.396 0.788,0.864 c 0,1.043 -0.97,1.01 -1.757,1.01 h -0.804 z" style="fill:#ffffff;fill-opacity:1;fill-rule:nonzero;stroke:none" id="path76"></path></g><g id="g78" transform="translate(374.7246,416.9541)"><path d="M 0,0 C 0,-1.549 -1.251,-2.784 -2.792,-2.784 -4.309,-2.768 -5.561,-1.533 -5.561,0 -5.551,1.541 -4.293,2.784 -2.768,2.784 -1.234,2.759 0.017,1.508 0,0 m -2.768,3.364 c -1.838,0 -3.338,-1.491 -3.355,-3.364 -0.025,-1.848 1.482,-3.356 3.331,-3.372 1.864,0 3.381,1.491 3.381,3.372 0,1.823 -1.509,3.348 -3.357,3.364" style="fill:#ffffff;fill-opacity:1;fill-rule:nonzero;stroke:none" id="path80"></path></g><g id="g82" transform="translate(415.7002,432.499)"><path d="m 0,0 c -0.116,-27.419 -52.129,-49.436 -116.206,-49.154 -64.069,0.257 -115.924,22.687 -115.8,50.107 0.099,27.427 52.137,49.436 116.222,49.153 C -51.723,49.866 0.107,27.428 0,0 m -115.8,47.903 c -58.252,0.223 -105.567,-20.807 -105.658,-46.991 -0.124,-26.185 47.016,-47.613 105.268,-47.862 58.228,-0.223 105.55,20.815 105.633,47 0.118,26.183 -47.007,47.613 -105.243,47.853" style="fill:#ffffff;fill-opacity:1;fill-rule:nonzero;stroke:none" id="path84"></path></g><g id="g86" transform="translate(215.2813,352.793)"><path d="m 0,0 c 0.953,-0.505 2.469,-0.984 4.019,-0.984 1.649,0 2.535,0.678 2.535,1.722 0,0.994 -0.762,1.558 -2.684,2.221 -2.652,0.952 -4.409,2.436 -4.409,4.756 0,2.719 2.295,4.789 6.049,4.789 1.823,0 3.132,-0.364 4.077,-0.811 L 8.784,8.801 C 8.162,9.107 7.002,9.563 5.46,9.563 3.894,9.563 3.132,8.825 3.132,8.022 c 0,-1.02 0.887,-1.467 2.974,-2.263 2.818,-1.043 4.119,-2.502 4.119,-4.764 0,-2.677 -2.038,-4.955 -6.43,-4.955 -1.823,0 -3.621,0.506 -4.533,0.994 z" style="fill:#2a5547;fill-opacity:1;fill-rule:nonzero;stroke:none" id="path88"></path></g><g id="g90" transform="translate(231.1826,363.7979)"><path d="m 0,0 v -3.124 h 2.585 v -2.66 H 0 v -4.2 c 0,-1.401 0.356,-2.047 1.425,-2.047 l 1.069,0.107 0.025,-2.734 c -0.464,-0.165 -1.334,-0.307 -2.329,-0.307 -1.16,0 -2.137,0.406 -2.734,0.986 -0.655,0.696 -0.986,1.814 -0.986,3.447 v 4.748 h -1.55 v 2.66 h 1.55 v 2.154 z" style="fill:#2a5547;fill-opacity:1;fill-rule:nonzero;stroke:none" id="path92"></path></g><g id="g94" transform="translate(237.9189,353.7129)"><path d="m 0,0 c 0.091,-1.49 1.583,-2.203 3.273,-2.203 1.235,0 2.237,0.165 3.199,0.505 l 0.48,-2.445 C 5.768,-4.64 4.317,-4.88 2.751,-4.88 c -3.936,0 -6.189,2.278 -6.189,5.908 0,2.942 1.822,6.19 5.858,6.19 3.745,0 5.17,-2.917 5.17,-5.791 L 7.475,0 Z m 4.243,2.47 c 0,0.879 -0.373,2.353 -2.039,2.353 -1.516,0 -2.138,-1.409 -2.228,-2.353 z" style="fill:#2a5547;fill-opacity:1;fill-rule:nonzero;stroke:none" id="path96"></path></g><g id="g98" transform="translate(256.729,351.874)"><path d="m 0,0 c 0,-1.103 0.058,-2.171 0.19,-2.801 h -3.248 l -0.215,1.16 H -3.34 c -0.762,-0.927 -1.955,-1.424 -3.331,-1.424 -2.345,0 -3.736,1.706 -3.736,3.562 0,3.008 2.692,4.441 6.803,4.441 v 0.133 c 0,0.647 -0.332,1.516 -2.114,1.516 -1.184,0 -2.444,-0.397 -3.198,-0.869 l -0.671,2.32 c 0.812,0.447 2.403,1.043 4.516,1.043 C -1.209,9.081 0,6.795 0,4.052 Z m -3.488,2.676 c -1.898,0 -3.365,-0.455 -3.365,-1.822 0,-0.929 0.622,-1.376 1.425,-1.376 0.87,0 1.641,0.588 1.873,1.318 l 0.067,0.629 z" style="fill:#2a5547;fill-opacity:1;fill-rule:nonzero;stroke:none" id="path100"></path></g><g id="g102" transform="translate(262.6123,355.7852)"><path d="m 0,0 h 0.05 l 0.836,1.392 2.337,3.497 h 4.35 L 3.422,0.182 8.162,-6.712 H 3.729 L 0.903,-1.947 0,-3.083 V -6.712 H -3.605 V 10.126 H 0 Z" style="fill:#2a5547;fill-opacity:1;fill-rule:nonzero;stroke:none" id="path104"></path></g><g id="g106" transform="translate(285.2339,349.0732)"><path d="m 0,0 -1.202,1.26 c -1.127,-0.979 -2.552,-1.508 -4.292,-1.508 -3.339,0 -5.013,2.096 -5.013,4.308 0,2.039 1.193,3.48 2.933,4.408 v 0.067 c -0.72,0.853 -1.21,1.964 -1.21,3.049 0,1.889 1.442,3.911 4.243,3.911 2.146,0 3.795,-1.342 3.795,-3.413 0,-1.583 -0.928,-2.868 -3.141,-3.994 L -3.911,8.013 c 1.068,-1.21 2.237,-2.577 3.065,-3.472 0.663,0.985 1.144,2.436 1.385,4.044 H 3.024 C 2.619,6.23 1.914,4.292 0.663,2.867 1.508,1.914 2.32,0.994 3.248,0 Z M -2.502,2.851 C -3.439,3.787 -4.881,5.419 -6.323,7.06 -7.027,6.571 -7.864,5.775 -7.864,4.491 c 0,-1.491 1.111,-2.685 2.801,-2.685 1.077,0 1.963,0.448 2.561,1.045 m -3.779,9.006 c 0,-0.935 0.422,-1.665 1.11,-2.444 1.284,0.812 2.03,1.509 2.03,2.569 0,0.828 -0.48,1.723 -1.541,1.723 -1.027,0 -1.599,-0.878 -1.599,-1.848" style="fill:#2a5547;fill-opacity:1;fill-rule:nonzero;stroke:none" id="path108"></path></g><g id="g110" transform="translate(293.9175,352.793)"><path d="m 0,0 c 0.953,-0.505 2.469,-0.984 4.011,-0.984 1.657,0 2.543,0.678 2.543,1.722 0,0.994 -0.77,1.558 -2.684,2.221 -2.652,0.952 -4.409,2.436 -4.409,4.756 0,2.719 2.296,4.789 6.049,4.789 1.823,0 3.132,-0.364 4.076,-0.811 L 8.784,8.801 C 8.163,9.107 7.002,9.563 5.46,9.563 3.894,9.563 3.132,8.825 3.132,8.022 c 0,-1.02 0.879,-1.467 2.958,-2.263 2.827,-1.043 4.135,-2.502 4.135,-4.764 0,-2.677 -2.039,-4.955 -6.43,-4.955 -1.823,0 -3.621,0.506 -4.532,0.994 z" style="fill:#2a5547;fill-opacity:1;fill-rule:nonzero;stroke:none" id="path112"></path></g><g id="g114" transform="translate(315.7441,351.874)"><path d="m 0,0 c 0,-1.103 0.049,-2.171 0.189,-2.801 h -3.247 l -0.215,1.16 H -3.34 c -0.763,-0.927 -1.955,-1.424 -3.332,-1.424 -2.345,0 -3.736,1.706 -3.736,3.562 0,3.008 2.693,4.441 6.803,4.441 v 0.133 c 0,0.647 -0.332,1.516 -2.113,1.516 -1.184,0 -2.444,-0.397 -3.198,-0.869 l -0.672,2.32 c 0.804,0.447 2.403,1.043 4.516,1.043 C -1.21,9.081 0,6.795 0,4.052 Z m -3.488,2.676 c -1.899,0 -3.366,-0.455 -3.366,-1.822 0,-0.929 0.622,-1.376 1.425,-1.376 0.87,0 1.625,0.588 1.874,1.318 l 0.067,0.629 z" style="fill:#2a5547;fill-opacity:1;fill-rule:nonzero;stroke:none" id="path116"></path></g><path d="m 318.021,349.073 h 3.613 v 16.83 h -3.613 z" style="fill:#2a5547;fill-opacity:1;fill-rule:nonzero;stroke:none" id="path118"></path><g id="g120" transform="translate(333.6094,351.874)"><path d="m 0,0 c 0,-1.103 0.049,-2.171 0.189,-2.801 h -3.248 l -0.215,1.16 H -3.34 c -0.762,-0.927 -1.948,-1.424 -3.331,-1.424 -2.337,0 -3.737,1.706 -3.737,3.562 0,3.008 2.701,4.441 6.804,4.441 v 0.133 c 0,0.647 -0.334,1.516 -2.115,1.516 -1.176,0 -2.443,-0.397 -3.198,-0.869 l -0.671,2.32 c 0.812,0.447 2.403,1.043 4.516,1.043 C -1.202,9.081 0,6.795 0,4.052 Z m -3.489,2.676 c -1.89,0 -3.364,-0.455 -3.364,-1.822 0,-0.929 0.613,-1.376 1.425,-1.376 0.869,0 1.632,0.588 1.872,1.318 l 0.067,0.629 z" style="fill:#2a5547;fill-opacity:1;fill-rule:nonzero;stroke:none" id="path122"></path></g><g id="g124" transform="translate(347.1318,365.9111)"><path d="m 0,0 v -13.375 c 0,-1.309 0.042,-2.685 0.091,-3.463 h -3.206 l -0.133,1.691 h -0.075 c -0.703,-1.292 -2.129,-1.956 -3.62,-1.956 -2.76,0 -4.964,2.353 -4.964,5.95 -0.017,3.911 2.411,6.197 5.196,6.197 1.441,0 2.535,-0.529 3.057,-1.309 h 0.05 V 0 Z m -3.604,-10.159 -0.05,0.68 c -0.215,0.944 -0.994,1.755 -2.114,1.755 -1.657,0 -2.485,-1.483 -2.485,-3.305 0,-1.964 0.978,-3.207 2.46,-3.207 1.045,0 1.898,0.712 2.114,1.74 l 0.075,0.821 z" style="fill:#2a5547;fill-opacity:1;fill-rule:nonzero;stroke:none" id="path126"></path></g><g id="g128" transform="translate(353.752,364.8418)"><path d="m 0,0 c 0.953,0.174 2.852,0.332 4.675,0.332 2.203,0 3.554,-0.208 4.748,-0.903 1.109,-0.589 1.896,-1.683 1.896,-3.15 0,-1.409 -0.829,-2.701 -2.634,-3.396 v -0.042 c 1.832,-0.473 3.181,-1.882 3.181,-3.92 0,-1.475 -0.662,-2.602 -1.665,-3.413 -1.169,-0.929 -3.107,-1.45 -6.29,-1.45 -1.772,0 -3.107,0.124 -3.911,0.24 z m 3.58,-6.114 h 1.186 c 1.93,0 2.924,0.778 2.924,1.963 0,1.21 -0.927,1.855 -2.569,1.855 -0.804,0 -1.251,-0.049 -1.541,-0.099 z m 0,-7.095 1.4,-0.057 c 1.641,0 3.091,0.647 3.091,2.328 0,1.6 -1.45,2.229 -3.248,2.229 H 3.58 Z" style="fill:#2a5547;fill-opacity:1;fill-rule:nonzero;stroke:none" id="path130"></path></g><g id="g132" transform="translate(377.0957,351.874)"><path d="m 0,0 c 0,-1.103 0.04,-2.171 0.189,-2.801 h -3.248 l -0.215,1.16 h -0.067 c -0.762,-0.927 -1.955,-1.424 -3.331,-1.424 -2.345,0 -3.736,1.706 -3.736,3.562 0,3.008 2.693,4.441 6.803,4.441 v 0.133 c 0,0.647 -0.333,1.516 -2.114,1.516 -1.184,0 -2.443,-0.397 -3.197,-0.869 l -0.673,2.32 c 0.813,0.447 2.403,1.043 4.518,1.043 C -1.211,9.081 0,6.795 0,4.052 Z m -3.489,2.676 c -1.898,0 -3.365,-0.455 -3.365,-1.822 0,-0.929 0.623,-1.376 1.417,-1.376 0.878,0 1.633,0.588 1.881,1.318 l 0.067,0.629 z" style="fill:#2a5547;fill-opacity:1;fill-rule:nonzero;stroke:none" id="path134"></path></g><g id="g136" transform="translate(379.374,356.8457)"><path d="M 0,0 C 0,1.706 -0.026,2.834 -0.092,3.828 H 2.991 L 3.131,1.69 h 0.093 c 0.595,1.707 1.997,2.419 3.13,2.419 L 7.109,4.035 V 0.646 l -0.961,0.1 c -1.334,0 -2.237,-0.713 -2.469,-1.84 L 3.612,-1.897 V -7.772 H 0 Z" style="fill:#2a5547;fill-opacity:1;fill-rule:nonzero;stroke:none" id="path138"></path></g></g></g></g></svg>
